<?xml version="1.0" standalone="no"?>
<!DOCTYPE svg PUBLIC "-//W3C//DTD SVG 20010904//EN"
 "http://www.w3.org/TR/2001/REC-SVG-20010904/DTD/svg10.dtd">
<svg version="1.0" xmlns="http://www.w3.org/2000/svg"
 width="895.000000pt" height="172.000000pt" viewBox="0 0 895.000000 172.000000"
 preserveAspectRatio="xMidYMid meet">

<g transform="translate(0.000000,172.000000) scale(0.100000,-0.100000)"
fill="#000000" stroke="none">
<path d="M2051 1395 c-142 -32 -249 -106 -335 -232 -73 -107 -90 -166 -89
-308 0 -104 3 -130 27 -200 69 -202 209 -333 399 -376 42 -9 61 -9 69 -1 18
18 1 42 -30 42 -37 0 -134 33 -188 65 -57 34 -139 127 -174 200 -85 174 -81
400 10 535 108 162 250 241 435 241 155 0 297 -62 377 -166 32 -40 37 -43 54
-31 18 14 17 16 -22 63 -51 59 -143 124 -221 153 -75 29 -221 36 -312 15z"/>
<path d="M2800 840 c0 -500 2 -570 15 -570 13 0 15 70 15 570 0 500 -2 570
-15 570 -13 0 -15 -70 -15 -570z"/>
<path d="M3022 1183 c3 -227 3 -228 25 -231 l23 -3 2 208 3 208 66 -1 c148 -4
241 -60 301 -181 29 -60 33 -78 36 -169 6 -149 -19 -226 -96 -304 -72 -71
-123 -90 -259 -97 -91 -5 -103 -8 -103 -24 0 -33 110 -34 260 -3 23 4 31 -6
111 -153 75 -136 90 -158 113 -161 14 -2 26 0 26 4 0 4 -41 81 -91 170 l-91
164 56 51 c72 66 113 147 126 252 23 187 -37 349 -163 432 -67 44 -149 65
-259 65 l-88 0 2 -227z"/>
<path d="M4160 1394 c-108 -23 -199 -74 -272 -153 -139 -150 -183 -309 -144
-514 44 -229 205 -402 416 -447 66 -14 67 -14 72 15 2 15 -3 21 -22 23 -195
21 -361 174 -414 380 -19 73 -22 232 -6 294 29 105 116 223 212 288 84 56 172
81 283 81 152 0 258 -45 357 -149 49 -51 58 -57 73 -46 16 12 15 16 -13 52
-37 46 -119 111 -179 141 -101 50 -233 63 -363 35z"/>
<path d="M4920 980 l0 -430 25 0 25 0 0 430 0 430 -25 0 -25 0 0 -430z"/>
<path d="M5550 1050 c0 -353 0 -360 20 -360 20 0 20 7 20 340 l0 340 175 0
c168 0 175 1 175 20 0 19 -7 20 -195 20 l-195 0 0 -360z"/>
<path d="M6512 1393 c3 -10 56 -206 118 -436 63 -229 117 -414 121 -410 4 5
11 30 17 57 9 46 5 69 -79 375 -131 479 -114 431 -150 431 -25 0 -30 -4 -27
-17z"/>
<path d="M7096 1328 c-14 -46 -86 -289 -160 -540 -102 -348 -133 -464 -127
-485 4 -16 12 -26 17 -24 7 3 183 567 339 1084 l14 47 -29 0 c-28 0 -31 -4
-54 -82z"/>
<path d="M7370 840 c0 -563 0 -570 20 -570 20 0 20 7 20 570 0 563 0 570 -20
570 -20 0 -20 -7 -20 -570z"/>
<path d="M7600 1186 l0 -226 25 0 25 0 0 195 0 195 98 0 c118 0 156 -10 199
-52 93 -90 75 -296 -29 -349 -29 -15 -59 -19 -140 -19 -57 0 -120 -3 -140 -6
l-38 -7 0 -323 0 -324 173 0 c200 0 227 8 293 83 130 148 89 449 -71 527 l-47
23 32 28 c95 88 105 296 18 395 -58 66 -95 78 -255 82 l-143 4 0 -226z m212
-328 c128 -3 137 -4 177 -31 32 -21 50 -44 73 -93 71 -152 34 -325 -82 -384
-34 -17 -59 -20 -185 -20 l-145 0 0 298 c1 261 2 293 15 265 l13 -31 134 -4z"/>
<path d="M8340 1049 c0 -338 1 -360 18 -357 16 3 17 28 20 340 l2 338 173 2
c154 3 172 5 175 21 3 16 -11 17 -192 17 l-196 0 0 -361z"/>
<path d="M692 1348 c-7 -7 -12 -37 -12 -68 0 -66 11 -80 63 -80 23 0 51 -8 68
-21 27 -19 29 -19 29 -2 0 10 9 24 20 31 16 10 20 23 20 70 0 32 -5 63 -12 70
-7 7 -42 12 -88 12 -46 0 -81 -5 -88 -12z"/>
<path d="M403 1290 c-19 -8 -23 -17 -23 -50 0 -29 4 -40 15 -40 8 0 15 -7 15
-16 0 -12 6 -15 23 -10 12 4 51 11 86 16 70 9 83 20 79 65 -2 22 -9 31 -28 36
-36 10 -141 9 -167 -1z"/>
<path d="M258 1213 c-30 -34 -31 -61 -4 -88 31 -31 56 -32 84 -2 28 30 28 61
0 87 -27 25 -60 26 -80 3z"/>
<path d="M915 1210 c-21 -23 -23 -66 -4 -85 27 -27 65 -28 88 -4 26 29 27 63
1 89 -25 25 -62 26 -85 0z"/>
<path d="M274 1072 c-24 -16 -34 -55 -34 -134 0 -59 4 -90 16 -106 14 -20 14
-22 -4 -22 -17 0 -21 10 -26 68 -14 140 -17 152 -37 152 -18 0 -19 -5 -14 -47
3 -27 10 -86 15 -133 6 -46 10 -115 10 -152 0 -61 2 -68 20 -68 18 0 20 7 20
70 l0 70 65 0 65 0 0 -70 c0 -63 2 -70 20 -70 18 0 20 7 20 86 0 54 4 83 10
79 6 -3 10 -42 10 -86 0 -77 1 -79 25 -79 23 0 24 4 27 63 l3 62 45 -63 c33
-46 50 -62 65 -60 37 5 28 41 -31 123 -31 44 -61 82 -65 83 -5 2 -9 10 -9 18
0 11 28 14 155 14 85 0 155 -3 155 -6 0 -3 -26 -43 -59 -87 -76 -107 -83 -121
-69 -135 22 -22 38 -12 83 49 l45 61 0 -61 c0 -58 1 -61 25 -61 25 0 25 1 25
79 0 61 3 80 15 85 13 4 15 -8 15 -79 0 -78 2 -85 20 -85 18 0 20 7 20 70 l0
70 65 0 65 0 0 -70 c0 -62 2 -70 19 -70 16 0 19 12 25 128 3 70 9 160 12 200
6 61 4 72 -9 72 -15 0 -20 -21 -33 -152 -6 -65 -7 -68 -33 -68 -22 1 -24 2 -8
11 14 9 17 26 17 119 0 105 -1 110 -25 126 -32 21 -61 11 -82 -29 -21 -42 -29
-47 -84 -47 -31 0 -49 -5 -52 -14 -10 -25 16 -36 80 -36 l63 0 22 45 c20 41
36 54 50 40 8 -8 -47 -108 -71 -129 -10 -9 -35 -20 -55 -23 -34 -5 -36 -4 -36
21 l0 26 -207 -2 -208 -3 -3 -27 c-3 -25 -5 -26 -35 -16 -45 15 -60 31 -96 99
-24 45 -29 59 -17 59 8 0 25 -19 38 -42 l23 -43 67 -3 c57 -2 68 0 77 16 14
27 5 32 -54 32 -49 0 -52 2 -73 39 -27 47 -59 63 -88 43z"/>
<path d="M5550 460 l0 -190 200 0 c171 0 200 2 200 15 0 13 -27 15 -180 15
l-180 0 0 155 0 155 30 0 c23 0 30 4 30 20 0 17 -7 20 -50 20 l-50 0 0 -190z"/>
<path d="M8340 460 l0 -190 200 0 c171 0 200 2 200 15 0 13 -27 15 -180 15
l-180 0 0 155 0 155 25 0 c18 0 25 5 25 20 0 17 -7 20 -45 20 l-45 0 0 -190z"/>
<path d="M2524 451 c-69 -66 -148 -107 -232 -123 -82 -15 -82 -15 -82 -39 0
-20 3 -21 58 -14 112 13 250 88 319 172 30 36 34 46 22 54 -20 13 -18 14 -85
-50z"/>
<path d="M4655 469 c-75 -77 -180 -133 -280 -147 -42 -6 -51 -11 -53 -30 -4
-26 10 -28 90 -11 88 18 174 65 249 136 55 52 67 68 58 79 -17 20 -21 18 -64
-27z"/>
<path d="M4920 365 l0 -95 220 0 c213 0 220 1 220 20 0 19 -7 20 -195 20
l-195 0 0 75 c0 73 -1 75 -25 75 -25 0 -25 0 -25 -95z"/>
</g>
</svg>
